<?xml version="1.0" encoding="UTF-8" standalone="no"?>
<!-- Created with Inkscape (http://www.inkscape.org/) -->

<svg
   xmlns:dc="http://purl.org/dc/elements/1.1/"
   xmlns:cc="http://creativecommons.org/ns#"
   xmlns:rdf="http://www.w3.org/1999/02/22-rdf-syntax-ns#"
   xmlns:svg="http://www.w3.org/2000/svg"
   xmlns="http://www.w3.org/2000/svg"
   xmlns:sodipodi="http://sodipodi.sourceforge.net/DTD/sodipodi-0.dtd"
   xmlns:inkscape="http://www.inkscape.org/namespaces/inkscape"
   width="475"
   height="239"
   id="svg3634"
   version="1.1"
   inkscape:version="0.48.4 r9939"
   sodipodi:docname="topologia.svg"
   inkscape:export-filename="/home/daniel/shared/oss/sathub/doc/static/topologia.png"
   inkscape:export-xdpi="90"
   inkscape:export-ydpi="90">
  <defs
     id="defs3636" />
  <sodipodi:namedview
     id="base"
     pagecolor="#ffffff"
     bordercolor="#666666"
     borderopacity="1.0"
     inkscape:pageopacity="0.0"
     inkscape:pageshadow="2"
     inkscape:zoom="2.73"
     inkscape:cx="271.42857"
     inkscape:cy="111.42857"
     inkscape:document-units="px"
     inkscape:current-layer="layer1"
     showgrid="false"
     inkscape:window-width="1881"
     inkscape:window-height="1056"
     inkscape:window-x="1959"
     inkscape:window-y="24"
     inkscape:window-maximized="1" />
  <metadata
     id="metadata3639">
    <rdf:RDF>
      <cc:Work
         rdf:about="">
        <dc:format>image/svg+xml</dc:format>
        <dc:type
           rdf:resource="http://purl.org/dc/dcmitype/StillImage" />
        <dc:title></dc:title>
      </cc:Work>
    </rdf:RDF>
  </metadata>
  <g
     inkscape:label="Camada 1"
     inkscape:groupmode="layer"
     id="layer1"
     transform="translate(0,-813.36218)">
    <g
       transform="translate(-93.738278,324.86057)"
       id="g3481">
      <g
         transform="matrix(0.62556767,0,0,0.75263505,170.13231,437.74348)"
         id="g3483"
         style="font-size:65.09004211px;font-style:normal;font-variant:normal;font-weight:normal;font-stretch:normal;line-height:125%;letter-spacing:0px;word-spacing:0px;fill:#4d4d4d;fill-opacity:1;stroke:none;font-family:Ubuntu;-inkscape-font-specification:Ubuntu">
        <path
           inkscape:connector-curvature="0"
           id="path3485"
           d="m 138.78855,349.16043 c 0.46007,-0.46008 0.69011,-1.00492 0.69013,-1.63452 -2e-5,-0.62958 -0.23006,-1.17442 -0.69013,-1.63451 -0.4601,-0.46008 -1.00494,-0.69012 -1.63451,-0.69013 -0.62961,10e-6 -1.17445,0.23005 -1.63452,0.69013 -0.4601,0.46009 -0.69014,1.00493 -0.69013,1.63451 -1e-5,0.6296 0.23003,1.17444 0.69013,1.63452 0.46007,0.46009 1.00491,0.69013 1.63452,0.69013 0.62957,0 1.17441,-0.23004 1.63451,-0.69013 m 14.638,-7.44613 0,-34.86966 c -4e-5,-0.31475 -0.12111,-0.58112 -0.36323,-0.7991 -0.21797,-0.2421 -0.48433,-0.36318 -0.79909,-0.36323 l -30.22038,0 c -0.3148,5e-5 -0.59327,0.12113 -0.83542,0.36323 -0.21794,0.21798 -0.32691,0.48435 -0.3269,0.7991 l 0,34.86966 c -1e-5,0.31481 0.10896,0.59328 0.3269,0.83542 0.24215,0.21795 0.52062,0.32691 0.83542,0.3269 l 30.22038,0 c 0.31476,10e-6 0.58112,-0.10895 0.79909,-0.3269 0.24212,-0.24214 0.36319,-0.52061 0.36323,-0.83542 m 4.64929,-34.86966 0,39.51895 c -4e-5,1.5982 -0.5691,2.96635 -1.70716,4.10445 -1.13815,1.13811 -2.5063,1.70716 -4.10445,1.70716 l -30.22038,0 c -1.5982,0 -2.96635,-0.56905 -4.10445,-1.70716 -1.13811,-1.1381 -1.70716,-2.50625 -1.70716,-4.10445 l 0,-39.51895 c 0,-1.59815 0.56905,-2.9663 1.70716,-4.10445 1.1381,-1.13806 2.50625,-1.70711 4.10445,-1.70716 l 30.22038,0 c 1.59815,5e-5 2.9663,0.5691 4.10445,1.70716 1.13806,1.13815 1.70712,2.5063 1.70716,4.10445" />
      </g>
      <text
         transform="matrix(0.86524846,0.50044897,-0.49955143,0.86680304,0,0)"
         sodipodi:linespacing="125%"
         id="text3487"
         y="438.35315"
         x="547.83691"
         style="font-size:29.07850647px;font-style:normal;font-variant:normal;font-weight:normal;font-stretch:normal;line-height:125%;letter-spacing:0px;word-spacing:0px;fill:#808080;fill-opacity:1;stroke:none;font-family:Ubuntu;-inkscape-font-specification:Ubuntu"
         xml:space="preserve"><tspan
           y="438.35315"
           x="547.83691"
           id="tspan3489"
           sodipodi:role="line"></tspan></text>
      <g
         style="fill:#808080"
         transform="translate(-14.092581,436.63129)"
         id="g3491">
        <rect
           style="fill:#808080;stroke:none"
           id="rect3493"
           width="79.177864"
           height="3"
           x="312.44827"
           y="102.19531" />
        <rect
           y="-391.62613"
           x="102.19531"
           height="3"
           width="34.361431"
           id="rect3495"
           style="fill:#808080;stroke:none"
           transform="matrix(0,1,-1,0,0,0)" />
        <rect
           y="123.97053"
           x="388.62613"
           height="3"
           width="10.307419"
           id="rect3497"
           style="fill:#808080;stroke:none" />
        <rect
           style="fill:#808080;stroke:none"
           id="rect3499"
           width="12.586221"
           height="3"
           x="123.97053"
           y="-398.93353"
           transform="matrix(0,1,-1,0,0,0)" />
      </g>
      <g
         id="g3501"
         style="font-size:97.12351227px;font-style:normal;font-variant:normal;font-weight:normal;font-stretch:normal;line-height:125%;letter-spacing:0px;word-spacing:0px;fill:#4d4d4d;fill-opacity:1;stroke:none;font-family:Ubuntu;-inkscape-font-specification:Ubuntu"
         transform="translate(3.3782306,429.03528)">
        <path
           id="path3503"
           d="m 330.58348,215.08687 55.49915,0 0,-6.9374 -55.49915,0 0,6.9374 m 0,-27.74958 55.49915,0 0,-6.93739 -55.49915,0 0,6.93739 m 83.46552,27.96637 c 1.01161,-1.01169 1.51746,-2.24019 1.51755,-3.68549 -9e-5,-1.44528 -0.50594,-2.67377 -1.51755,-3.68549 -1.01179,-1.01169 -2.24029,-1.51754 -3.68549,-1.51755 -1.44538,1e-5 -2.67387,0.50586 -3.68549,1.51755 -1.01179,1.01172 -1.51764,2.24021 -1.51756,3.68549 -8e-5,1.4453 0.50577,2.6738 1.51756,3.68549 1.01162,1.01171 2.24011,1.51756 3.68549,1.51756 1.4452,0 2.6737,-0.50585 3.68549,-1.51756 m -83.46552,-55.71594 55.49915,0 0,-6.9374 -55.49915,0 0,6.9374 m 83.46552,27.96637 c 1.01161,-1.01167 1.51746,-2.24017 1.51755,-3.68549 -9e-5,-1.44525 -0.50594,-2.67375 -1.51755,-3.68549 -1.01179,-1.01166 -2.24029,-1.51752 -3.68549,-1.51756 -1.44538,4e-5 -2.67387,0.5059 -3.68549,1.51756 -1.01179,1.01174 -1.51764,2.24024 -1.51756,3.68549 -8e-5,1.44532 0.50577,2.67382 1.51756,3.68549 1.01162,1.01173 2.24011,1.51758 3.68549,1.51755 1.4452,3e-5 2.6737,-0.50582 3.68549,-1.51755 m 0,-27.74958 c 1.01161,-1.01164 1.51746,-2.24013 1.51755,-3.68549 -9e-5,-1.44522 -0.50594,-2.67372 -1.51755,-3.68549 -1.01179,-1.01163 -2.24029,-1.51748 -3.68549,-1.51755 -1.44538,7e-5 -2.67387,0.50592 -3.68549,1.51755 -1.01179,1.01177 -1.51764,2.24027 -1.51756,3.68549 -8e-5,1.44536 0.50577,2.67385 1.51756,3.68549 1.01162,1.01177 2.24011,1.51762 3.68549,1.51756 1.4452,6e-5 2.6737,-0.50579 3.68549,-1.51756 m 6.7206,41.40757 0,20.81218 -97.12351,0 0,-20.81218 97.12351,0 m 0,-27.74957 0,20.81218 -97.12351,0 0,-20.81218 97.12351,0 m 0,-27.74958 0,20.81218 -97.12351,0 0,-20.81218 97.12351,0"
           inkscape:connector-curvature="0" />
      </g>
      <g
         style="fill:#4d4d4d"
         transform="translate(124.8419,270.92816)"
         id="g3505">
        <g
           style="font-size:63.36013412px;font-style:normal;font-variant:normal;font-weight:normal;font-stretch:normal;line-height:125%;letter-spacing:0px;word-spacing:0px;fill:#4d4d4d;fill-opacity:1;stroke:none;font-family:Ubuntu;-inkscape-font-specification:Ubuntu"
           id="g3507"
           transform="translate(6.6320921,-13.264184)">
          <path
             style="fill:#4d4d4d"
             d="m 154.99846,259.005 -29.4172,0 c -1.55573,4e-5 -2.88752,0.55397 -3.99537,1.66179 -1.10787,1.1079 -1.66179,2.43969 -1.66179,3.99536 l 0,29.41721 c 0,1.55573 0.55392,2.88751 1.66179,3.99536 1.10785,1.10787 2.43964,1.6618 3.99537,1.66179 l 29.4172,0 c 1.55568,10e-6 2.88746,-0.55392 3.99537,-1.66179 1.10781,-1.10785 1.66174,-2.43963 1.66179,-3.99536 l 0,-29.41721 c -5e-5,-1.55567 -0.55398,-2.88746 -1.66179,-3.99536 -1.10791,-1.10782 -2.43969,-1.66175 -3.99537,-1.66179 m 10.18288,5.65715 0,29.41721 c -5e-5,2.80501 -1.00184,5.2093 -3.00536,7.21287 -1.98005,1.98001 -4.37256,2.97001 -7.17752,2.97001 l -29.4172,0 c -2.80502,0 -5.20931,-0.99 -7.21288,-2.97001 -1.98,-2.00357 -2.97,-4.40786 -2.97,-7.21287 l 0,-29.41721 c 0,-2.80496 0.99,-5.19746 2.97,-7.17751 2.00357,-2.00353 4.40786,-3.00532 7.21288,-3.00536 l 29.4172,0 c 2.80496,4e-5 5.19747,1.00183 7.17752,3.00536 2.00352,1.98005 3.00531,4.37255 3.00536,7.17751"
             id="path3509"
             inkscape:connector-curvature="0" />
        </g>
        <g
           style="font-size:22px;font-style:normal;font-variant:normal;font-weight:normal;font-stretch:normal;line-height:125%;letter-spacing:0px;word-spacing:0px;fill:#4d4d4d;fill-opacity:1;stroke:none;font-family:Ubuntu;-inkscape-font-specification:Ubuntu"
           id="g3511"
           transform="matrix(0.85838101,0,0,0.85838101,59.778499,-107.10833)">
          <path
             d="m 85.107098,438.81533 c 0.997327,0 1.723326,-0.16866 2.178,-0.506 0.454659,-0.33733 0.681992,-0.814 0.682,-1.43 -8e-6,-0.36666 -0.08067,-0.68199 -0.242,-0.946 -0.146674,-0.26399 -0.366674,-0.49866 -0.66,-0.704 -0.278674,-0.21999 -0.62334,-0.41799 -1.034,-0.594 -0.410672,-0.19066 -0.880005,-0.37399 -1.408,-0.55 -0.528004,-0.19066 -1.041337,-0.39599 -1.54,-0.616 -0.484003,-0.23466 -0.916669,-0.52066 -1.298,-0.858 -0.366668,-0.33732 -0.667335,-0.74066 -0.902,-1.21 -0.220001,-0.46932 -0.330001,-1.03399 -0.33,-1.694 -1e-6,-1.37865 0.476665,-2.45665 1.43,-3.234 0.95333,-0.79198 2.251329,-1.18798 3.894,-1.188 0.953326,2e-5 1.796659,0.11002 2.53,0.33 0.747991,0.20535 1.334657,0.43268 1.76,0.682 l -0.858,2.244 c -0.498676,-0.27865 -1.048675,-0.49132 -1.65,-0.638 -0.586674,-0.14665 -1.19534,-0.21999 -1.826,-0.22 -0.748005,10e-6 -1.334671,0.15401 -1.76,0.462 -0.41067,0.30801 -0.616004,0.74068 -0.616,1.298 -4e-6,0.33735 0.066,0.63068 0.198,0.88 0.146663,0.23468 0.344663,0.44734 0.594,0.638 0.263995,0.19068 0.564662,0.36668 0.902,0.528 0.351994,0.16134 0.733327,0.31534 1.144,0.462 0.71866,0.26401 1.356659,0.53534 1.914,0.814 0.571991,0.26401 1.048657,0.58668 1.43,0.968 0.39599,0.36667 0.696656,0.80667 0.902,1.32 0.205322,0.49867 0.307989,1.10734 0.308,1.826 -1.1e-5,1.37867 -0.491344,2.44934 -1.474,3.212 -0.968009,0.748 -2.390674,1.122 -4.268,1.122 -0.630671,0 -1.210004,-0.044 -1.738,-0.132 -0.513336,-0.0733 -0.975336,-0.16867 -1.386,-0.286 -0.396002,-0.11733 -0.740668,-0.23467 -1.034,-0.352 -0.293334,-0.132 -0.528001,-0.24933 -0.704,-0.352 l 0.814,-2.266 c 0.395998,0.22 0.931331,0.44 1.606,0.66 0.674663,0.22 1.488662,0.33 2.442,0.33"
             style="font-weight:500;letter-spacing:-1px;fill:#4d4d4d;-inkscape-font-specification:Ubuntu Medium"
             id="path3513"
             inkscape:connector-curvature="0" />
          <path
             d="m 105.84447,440.11333 c -0.44001,0 -0.84334,-0.0587 -1.21,-0.176 -0.36668,-0.132 -0.67468,-0.33 -0.924,-0.594 -0.32268,0.23467 -0.70401,0.41067 -1.144,0.528 -0.42534,0.11734 -0.87267,0.176 -1.342,0.176 -0.71867,0 -1.378673,-0.11 -1.979997,-0.33 -0.586675,-0.22 -1.100007,-0.55 -1.54,-0.99 -0.42534,-0.44 -0.75534,-0.98266 -0.99,-1.628 -0.234672,-0.65999 -0.352006,-1.42266 -0.352,-2.288 -6e-6,-0.71866 0.117328,-1.39332 0.352,-2.024 0.23466,-0.64532 0.571993,-1.20266 1.012,-1.672 0.454659,-0.46932 1.004659,-0.83599 1.65,-1.1 0.659987,-0.27865 1.407987,-0.41799 2.243997,-0.418 0.80666,10e-6 1.53266,0.066 2.178,0.198 0.64532,0.13201 1.15866,0.27135 1.54,0.418 l 0,6.82 c -1e-5,0.41067 0.0733,0.69667 0.22,0.858 0.16132,0.14667 0.37399,0.22 0.638,0.22 0.63065,0 1.12199,-0.38866 1.474,-1.166 0.36665,-0.79199 0.54999,-1.92133 0.55,-3.388 -1e-5,-0.90932 -0.16135,-1.75266 -0.484,-2.53 -0.30801,-0.79199 -0.76268,-1.47399 -1.364,-2.046 -0.60135,-0.57199 -1.33468,-1.01932 -2.2,-1.342 -0.85068,-0.33732 -1.81134,-0.50598 -2.882,-0.506 -1.05601,2e-5 -2.031339,0.17601 -2.925997,0.528 -0.880007,0.35201 -1.642673,0.85801 -2.288,1.518 -0.630671,0.66001 -1.129338,1.46668 -1.496,2.42 -0.352004,0.95334 -0.528003,2.03134 -0.528,3.234 -3e-6,1.26134 0.18333,2.36867 0.55,3.322 0.366662,0.93867 0.879995,1.72334 1.54,2.354 0.674661,0.63067 1.473993,1.10733 2.398,1.43 0.938658,0.32267 1.979987,0.484 3.123997,0.484 0.79199,0 1.48866,-0.0513 2.09,-0.154 0.61599,-0.088 1.07799,-0.16867 1.386,-0.242 l 0.264,1.848 c -0.16134,0.044 -0.37401,0.0953 -0.638,0.154 -0.24934,0.0587 -0.54268,0.11 -0.88,0.154 -0.32268,0.0587 -0.67468,0.10266 -1.056,0.132 -0.38134,0.044 -0.77001,0.066 -1.166,0.066 -1.36401,0 -2.647339,-0.18334 -3.849997,-0.55 -1.188006,-0.36667 -2.229338,-0.93867 -3.124,-1.716 -0.880003,-0.77733 -1.584002,-1.76733 -2.112,-2.97 -0.513335,-1.20266 -0.770001,-2.63999 -0.77,-4.312 -1e-6,-1.59866 0.263999,-2.99932 0.792,-4.202 0.527998,-1.21732 1.231997,-2.22199 2.112,-3.014 0.879995,-0.80665 1.884661,-1.40798 3.014,-1.804 1.143992,-0.41065 2.331987,-0.61598 3.563997,-0.616 1.27599,2e-5 2.47132,0.19068 3.586,0.572 1.11465,0.38135 2.08265,0.93868 2.904,1.672 0.82132,0.71868 1.46665,1.60601 1.936,2.662 0.48398,1.05601 0.72598,2.25868 0.726,3.608 -2e-5,1.04134 -0.11735,1.95801 -0.352,2.75 -0.22002,0.792 -0.53535,1.45934 -0.946,2.002 -0.41068,0.54267 -0.89468,0.95334 -1.452,1.232 -0.55735,0.27867 -1.17335,0.418 -1.848,0.418 m -2.838,-2.398 c -0.0293,-0.16133 -0.0587,-0.34466 -0.088,-0.55 -0.0147,-0.20533 -0.022,-0.40333 -0.022,-0.594 l 0,-4.84 c -0.29334,-0.0733 -0.67468,-0.10999 -1.144,-0.11 -0.49867,10e-6 -0.93134,0.0807 -1.298,0.242 -0.35201,0.16134 -0.645339,0.38868 -0.879997,0.682 -0.234675,0.27868 -0.410675,0.61601 -0.528,1.012 -0.102675,0.38134 -0.154008,0.79934 -0.154,1.254 -8e-6,0.92401 0.197992,1.68667 0.594,2.288 0.395991,0.60134 1.011987,0.902 1.847997,0.902 0.26399,0 0.53533,-0.0147 0.814,-0.044 0.29332,-0.044 0.57932,-0.12466 0.858,-0.242"
             style="font-weight:500;letter-spacing:-1px;fill:#4d4d4d;-inkscape-font-specification:Ubuntu Medium"
             id="path3515"
             inkscape:connector-curvature="0" />
          <path
             d="m 122.39257,425.63733 0,2.398 -4.686,0 0,12.848 -2.794,0 0,-12.848 -4.686,0 0,-2.398 12.166,0"
             style="font-weight:500;letter-spacing:-1px;fill:#4d4d4d;-inkscape-font-specification:Ubuntu Medium"
             id="path3517"
             inkscape:connector-curvature="0" />
        </g>
      </g>
      <text
         sodipodi:linespacing="125%"
         id="text3519"
         y="553.67206"
         x="324.94244"
         style="font-size:22px;font-style:normal;font-variant:normal;font-weight:normal;font-stretch:normal;line-height:125%;letter-spacing:0px;word-spacing:0px;fill:#808080;fill-opacity:1;stroke:none;font-family:Ubuntu;-inkscape-font-specification:Ubuntu"
         xml:space="preserve"><tspan
           style="font-size:12px;fill:#808080"
           y="553.67206"
           x="324.94244"
           id="tspan3521"
           sodipodi:role="line">USB</tspan></text>
      <g
         id="g3523"
         transform="translate(-114.10578,9.8197247)">
        <text
           sodipodi:linespacing="125%"
           id="text3525"
           y="525.31506"
           x="317.3493"
           style="font-size:22px;font-style:normal;font-variant:normal;font-weight:normal;font-stretch:normal;line-height:125%;letter-spacing:0px;word-spacing:0px;fill:#808080;fill-opacity:1;stroke:none;font-family:Ubuntu;-inkscape-font-specification:Ubuntu"
           xml:space="preserve"><tspan
             style="font-size:12px;fill:#808080"
             y="525.31506"
             x="317.3493"
             id="tspan3527"
             sodipodi:role="line">ETH</tspan></text>
        <g
           id="g3529">
          <rect
             y="528.95178"
             x="-358.67328"
             height="3"
             width="42.570789"
             id="rect3531"
             style="fill:#808080;stroke:none"
             transform="scale(-1,1)" />
          <rect
             style="fill:#808080;stroke:none"
             id="rect3533"
             width="4.2306128"
             height="3"
             x="-314.3331"
             y="528.95178"
             transform="scale(-1,1)" />
          <rect
             y="528.95178"
             x="-308.3331"
             height="3"
             width="4.2306128"
             id="rect3535"
             style="fill:#808080;stroke:none"
             transform="scale(-1,1)" />
          <rect
             style="fill:#808080;stroke:none"
             id="rect3537"
             width="4.2306128"
             height="3"
             x="-302.3331"
             y="528.95178"
             transform="scale(-1,1)" />
        </g>
      </g>
      <g
         id="g3539"
         transform="translate(10.700823,25.430569)">
        <path
           id="path3541"
           d="m 133.40625,486.8125 c -4.98838,5e-5 -9.22052,1.7518 -12.75,5.28125 -3.52951,3.52954 -5.31251,7.79293 -5.3125,12.78125 0,0.35298 0.0154,0.87244 0.0625,1.53125 -2.72949,1.27065 -4.92313,3.19298 -6.59375,5.78125 -1.67063,2.56479 -2.5,5.39406 -2.5,8.5 0,4.35306 1.54257,8.08155 4.625,11.1875 3.10595,3.08243 6.83444,4.625 11.1875,4.625 l 38.40625,0 c 3.74121,0 6.92708,-1.30214 9.5625,-3.9375 2.65882,-2.65889 3.99994,-5.88372 4,-9.625 -6e-5,-3.17653 -0.99229,-5.99036 -2.96875,-8.4375 -1.97658,-2.47063 -4.49594,-4.04407 -7.53125,-4.75 0.96467,-1.48236 1.43744,-3.11022 1.4375,-4.875 -6e-5,-2.49415 -0.86031,-4.61022 -2.625,-6.375 -1.7648,-1.76471 -3.91212,-2.65621 -6.40625,-2.65625 -2.25893,4e-5 -4.19669,0.72868 -5.84375,2.1875 -1.38831,-3.34122 -3.62092,-6.05431 -6.65625,-8.125 -3.01188,-2.07059 -6.37604,-3.0937 -10.09375,-3.09375 z m -13.53125,30.75 c 0.2,10e-6 0.364,0.0515 0.5,0.1875 0.144,0.12801 0.21875,0.30726 0.21875,0.53125 0,0.22401 -0.0747,0.39526 -0.21875,0.53125 -0.136,0.12801 -0.3,0.21876 -0.5,0.21875 -0.2,10e-6 -0.38725,-0.0907 -0.53125,-0.21875 -0.136,-0.13599 -0.1875,-0.30724 -0.1875,-0.53125 0,-0.22399 0.0515,-0.40324 0.1875,-0.53125 0.144,-0.13599 0.33125,-0.18749 0.53125,-0.1875 z m 10.4375,0.65625 0,1.9375 2.34375,0 0,0.9375 -2.34375,0 0,2.875 c 0,0.312 0.0145,0.57325 0.0625,0.78125 0.048,0.2 0.12275,0.34875 0.21875,0.46875 0.096,0.112 0.19975,0.202 0.34375,0.25 0.144,0.048 0.308,0.0625 0.5,0.0625 0.336,0 0.6125,-0.0217 0.8125,-0.0937 0.208,-0.08 0.3575,-0.1555 0.4375,-0.1875 l 0.21875,0.9375 c -0.112,0.056 -0.31375,0.1075 -0.59375,0.1875 -0.28,0.088 -0.60875,0.15625 -0.96875,0.15625 -0.424,0 -0.75125,-0.0522 -1.03125,-0.15625 -0.272,-0.112 -0.5195,-0.284 -0.6875,-0.5 -0.168,-0.216 -0.27175,-0.5005 -0.34375,-0.8125 -0.064,-0.32 -0.0937,-0.67775 -0.0937,-1.09375 l 0,-5.5625 1.125,-0.1875 z m 29.625,0 0,1.9375 2.375,0 0,0.9375 -2.375,0 0,2.875 c 0,0.312 0.0457,0.57325 0.0937,0.78125 0.048,0.2 0.12275,0.34875 0.21875,0.46875 0.096,0.112 0.19975,0.202 0.34375,0.25 0.144,0.048 0.308,0.0625 0.5,0.0625 0.33599,0 0.61249,-0.0217 0.8125,-0.0937 0.20799,-0.08 0.35749,-0.1555 0.4375,-0.1875 l 0.21875,0.9375 c -0.11201,0.056 -0.31376,0.1075 -0.59375,0.1875 -0.28001,0.088 -0.60876,0.15625 -0.96875,0.15625 -0.424,0 -0.7825,-0.0522 -1.0625,-0.15625 -0.272,-0.112 -0.48825,-0.284 -0.65625,-0.5 -0.168,-0.216 -0.27175,-0.5005 -0.34375,-0.8125 -0.064,-0.32 -0.0937,-0.67775 -0.0937,-1.09375 l 0,-5.5625 1.09375,-0.1875 z M 124.84375,520 c 0.49599,10e-6 0.92199,0.0747 1.25,0.21875 0.32799,0.13601 0.58924,0.33776 0.78125,0.59375 0.19999,0.24801 0.32624,0.55426 0.40625,0.90625 0.08,0.35201 0.12499,0.73226 0.125,1.15625 l 0,3.5 -1.125,0 0,-3.25 c -1e-5,-0.38399 -0.007,-0.72799 -0.0625,-1 -0.048,-0.27199 -0.16126,-0.48824 -0.28125,-0.65625 -0.12001,-0.16799 -0.26876,-0.27174 -0.46875,-0.34375 -0.20001,-0.08 -0.45401,-0.12499 -0.75,-0.125 -0.12001,10e-6 -0.24701,-0.008 -0.375,0 -0.12801,0.008 -0.25501,0.0153 -0.375,0.0312 -0.11201,0.008 -0.21651,0.0465 -0.3125,0.0625 -0.088,0.016 -0.14751,0.0232 -0.1875,0.0312 l 0,5.25 -1.09375,0 0,-6.0625 c 0.25599,-0.064 0.57599,-0.11549 1,-0.1875 0.42399,-0.072 0.91674,-0.12499 1.46875,-0.125 z m 11.625,0 c 0.83999,10e-6 1.48949,0.25326 1.9375,0.78125 0.44799,0.52001 0.65624,1.30301 0.65625,2.375 -1e-5,0.048 -1e-5,0.13876 0,0.21875 -1e-5,0.072 0.008,0.12351 0,0.1875 l -4.28125,0 c 0.048,0.648 0.2345,1.13275 0.5625,1.46875 0.328,0.336 0.83525,0.5 1.53125,0.5 0.39199,0 0.73599,-0.0298 1,-0.0937 0.27199,-0.072 0.45774,-0.1235 0.59375,-0.1875 l 0.15625,0.9375 c -0.13601,0.072 -0.37476,0.13875 -0.71875,0.21875 -0.33601,0.08 -0.72426,0.125 -1.15625,0.125 -0.544,0 -1.00625,-0.09 -1.40625,-0.25 -0.392,-0.168 -0.71275,-0.3995 -0.96875,-0.6875 -0.256,-0.288 -0.4345,-0.608 -0.5625,-1 -0.12,-0.4 -0.1875,-0.8405 -0.1875,-1.3125 0,-0.55199 0.0588,-1.02949 0.21875,-1.4375 0.16,-0.41599 0.39225,-0.75924 0.65625,-1.03125 0.264,-0.27199 0.56225,-0.48899 0.90625,-0.625 0.344,-0.13599 0.7025,-0.18749 1.0625,-0.1875 z m 6.5,0 c 0.096,10e-6 0.1925,0.0153 0.3125,0.0312 0.128,0.008 0.255,0.0385 0.375,0.0625 0.12,0.016 0.24775,0.0385 0.34375,0.0625 0.104,0.016 0.17075,0.0153 0.21875,0.0312 l -0.1875,0.96875 c -0.088,-0.032 -0.2295,-0.0538 -0.4375,-0.0937 -0.2,-0.048 -0.46125,-0.0625 -0.78125,-0.0625 -0.208,10e-6 -0.417,0.0145 -0.625,0.0625 -0.2,0.04 -0.34225,0.0778 -0.40625,0.0937 l 0,5.21875 -1.125,0 0,-5.96875 c 0.264,-0.096 0.608,-0.16999 1,-0.25 0.392,-0.088 0.8245,-0.15624 1.3125,-0.15625 z m 4.8125,0 c 0.49599,10e-6 0.92199,0.0747 1.25,0.21875 0.32799,0.13601 0.58924,0.33776 0.78125,0.59375 0.19999,0.24801 0.32624,0.55426 0.40625,0.90625 0.08,0.35201 0.12499,0.73226 0.125,1.15625 l 0,3.5 -1.125,0 0,-3.25 c -1e-5,-0.38399 -0.006,-0.72799 -0.0625,-1 -0.048,-0.27199 -0.13001,-0.48824 -0.25,-0.65625 -0.12001,-0.16799 -0.30001,-0.27174 -0.5,-0.34375 -0.20001,-0.08 -0.42276,-0.12499 -0.71875,-0.125 -0.12,10e-6 -0.247,-0.008 -0.375,0 -0.128,0.008 -0.255,0.0153 -0.375,0.0312 -0.112,0.008 -0.2165,0.0465 -0.3125,0.0625 -0.088,0.016 -0.1475,0.0232 -0.1875,0.0312 l 0,5.25 -1.125,0 0,-6.0625 c 0.256,-0.064 0.60725,-0.11549 1.03125,-0.1875 0.424,-0.072 0.8855,-0.12499 1.4375,-0.125 z m 6.90625,0 c 0.84,10e-6 1.4895,0.25326 1.9375,0.78125 0.448,0.52001 0.6875,1.30301 0.6875,2.375 l 0,0.21875 c 0,0.072 -0.0232,0.12351 -0.0312,0.1875 l -4.28125,0 c 0.048,0.648 0.26575,1.13275 0.59375,1.46875 0.328,0.336 0.83525,0.5 1.53125,0.5 0.392,0 0.70475,-0.0298 0.96875,-0.0937 0.272,-0.072 0.489,-0.1235 0.625,-0.1875 l 0.15625,0.9375 c -0.136,0.072 -0.37475,0.13875 -0.71875,0.21875 -0.336,0.08 -0.72425,0.125 -1.15625,0.125 -0.544,0 -1.00625,-0.09 -1.40625,-0.25 -0.392,-0.168 -0.744,-0.3995 -1,-0.6875 -0.256,-0.288 -0.4345,-0.608 -0.5625,-1 -0.12,-0.4 -0.1875,-0.8405 -0.1875,-1.3125 0,-0.55199 0.09,-1.02949 0.25,-1.4375 0.16,-0.41599 0.361,-0.75924 0.625,-1.03125 0.264,-0.27199 0.56225,-0.48899 0.90625,-0.625 0.344,-0.13599 0.7025,-0.18749 1.0625,-0.1875 z m -35.375,0.15625 1.125,0 0,6.21875 -1.125,0 0,-6.21875 z m 17.125,0.78125 c -0.256,10e-6 -0.4875,0.0522 -0.6875,0.15625 -0.192,0.096 -0.33275,0.21501 -0.46875,0.375 -0.136,0.16001 -0.26375,0.35451 -0.34375,0.5625 -0.072,0.20801 -0.101,0.40901 -0.125,0.625 l 3.09375,0 c 0.008,-0.50399 -0.11101,-0.89874 -0.375,-1.21875 -0.25601,-0.32799 -0.63776,-0.49999 -1.09375,-0.5 z m 18.25,0 c -0.256,10e-6 -0.4875,0.0522 -0.6875,0.15625 -0.192,0.096 -0.364,0.21501 -0.5,0.375 -0.136,0.16001 -0.2325,0.35451 -0.3125,0.5625 -0.072,0.20801 -0.13225,0.40901 -0.15625,0.625 l 3.09375,0 c 0.008,-0.50399 -0.111,-0.89874 -0.375,-1.21875 -0.256,-0.32799 -0.6065,-0.49999 -1.0625,-0.5 z"
           style="font-size:63.24861145px;font-style:normal;font-variant:normal;font-weight:normal;font-stretch:normal;line-height:125%;letter-spacing:0px;word-spacing:0px;fill:#4d4d4d;fill-opacity:1;stroke:none;font-family:Ubuntu;-inkscape-font-specification:Ubuntu"
           inkscape:connector-curvature="0" />
      </g>
      <g
         style="font-size:105.94283295px;font-style:normal;font-variant:normal;font-weight:normal;font-stretch:normal;line-height:125%;letter-spacing:0px;word-spacing:0px;fill:#4d4d4d;fill-opacity:1;stroke:none;font-family:Ubuntu;-inkscape-font-specification:Ubuntu"
         id="g3543"
         transform="matrix(0.7678618,0,0,0.7678618,289.51371,421.89872)">
        <path
           style="fill:#4d4d4d"
           d="m 325.76025,327.47456 0,-49.18775 c -1.1e-4,-0.51229 -0.19718,-0.94583 -0.5912,-1.30064 -0.35483,-0.39405 -0.78837,-0.59111 -1.30064,-0.59119 l -94.59182,0 c -0.51238,8e-5 -0.96563,0.19714 -1.35975,0.59119 -0.35473,0.35481 -0.53209,0.78835 -0.53208,1.30064 l 0,49.18775 c -1e-5,0.5124 0.17735,0.96565 0.53208,1.35975 0.39412,0.35475 0.84737,0.53211 1.35975,0.53208 l 94.59182,0 c 0.51227,3e-5 0.94581,-0.17733 1.30064,-0.53208 0.39402,-0.3941 0.59109,-0.84735 0.5912,-1.35975 m 7.56734,-49.18775 0,64.32244 c -1.1e-4,2.60129 -0.92632,4.82813 -2.77863,6.68054 -1.85254,1.85243 -4.07938,2.77865 -6.68055,2.77864 l -32.16122,0 c -7e-5,1.45829 0.31524,2.99541 0.94592,4.61135 0.63054,1.57653 1.26115,2.95599 1.89184,4.13839 0.63053,1.22181 0.94584,2.0889 0.94592,2.60128 -8e-5,1.02474 -0.37451,1.91153 -1.12328,2.66039 -0.74893,0.74884 -1.63573,1.12327 -2.6604,1.12328 l -30.26938,0 c -1.02478,-1e-5 -1.91158,-0.37444 -2.66039,-1.12328 -0.74889,-0.74886 -1.12332,-1.63565 -1.12328,-2.66039 -4e-5,-0.55179 0.31527,-1.41888 0.94592,-2.60128 0.63057,-1.1824 1.26118,-2.56186 1.89183,-4.13839 0.63057,-1.57653 0.94588,-3.11364 0.94592,-4.61135 l -32.16122,0 c -2.60128,1e-5 -4.82812,-0.92621 -6.68054,-2.77864 -1.85243,-1.85241 -2.77864,-4.07925 -2.77864,-6.68054 l 0,-64.32244 c 0,-2.60119 0.92621,-4.82804 2.77864,-6.68055 1.85242,-1.85233 4.07926,-2.77854 6.68054,-2.77863 l 94.59182,0 c 2.60117,9e-5 4.82801,0.9263 6.68055,2.77863 1.85231,1.85251 2.77852,4.07936 2.77863,6.68055"
           id="path3545"
           inkscape:connector-curvature="0" />
      </g>
      <text
         sodipodi:linespacing="125%"
         id="text3547"
         y="615.37213"
         x="509.63321"
         style="font-size:22px;font-style:normal;font-variant:normal;font-weight:normal;font-stretch:normal;line-height:125%;letter-spacing:0px;word-spacing:0px;fill:#808080;fill-opacity:1;stroke:none;font-family:Ubuntu;-inkscape-font-specification:Ubuntu"
         xml:space="preserve"><tspan
           style="font-size:12px;fill:#808080"
           y="615.37213"
           x="509.63321"
           id="tspan3549"
           sodipodi:role="line">ETH</tspan></text>
      <text
         xml:space="preserve"
         style="font-size:22px;font-style:normal;font-variant:normal;font-weight:normal;font-stretch:normal;line-height:125%;letter-spacing:0px;word-spacing:0px;fill:#808080;fill-opacity:1;stroke:none;font-family:Ubuntu;-inkscape-font-specification:Ubuntu"
         x="236.07269"
         y="643.57538"
         id="text3551"
         sodipodi:linespacing="125%"><tspan
           sodipodi:role="line"
           id="tspan3553"
           x="236.07269"
           y="643.57538"
           style="font-size:12px;fill:#808080">WiFi</tspan></text>
      <text
         sodipodi:linespacing="125%"
         id="text3555"
         y="577.37537"
         x="271.94885"
         style="font-size:22px;font-style:normal;font-variant:normal;font-weight:normal;font-stretch:normal;text-align:center;line-height:125%;letter-spacing:0px;word-spacing:0px;text-anchor:middle;fill:#808080;fill-opacity:1;stroke:none;font-family:Ubuntu;-inkscape-font-specification:Ubuntu"
         xml:space="preserve"><tspan
           style="font-size:12px;text-align:center;text-anchor:middle;fill:#808080"
           y="577.37537"
           x="271.94885"
           id="tspan3557"
           sodipodi:role="line">Equipamento</tspan><tspan
           id="tspan3559"
           style="font-size:12px;text-align:center;text-anchor:middle;fill:#808080"
           y="592.37537"
           x="271.94885"
           sodipodi:role="line">SAT</tspan></text>
      <text
         sodipodi:linespacing="125%"
         id="text3561"
         y="669.77734"
         x="374.10538"
         style="font-size:22px;font-style:normal;font-variant:normal;font-weight:normal;font-stretch:normal;line-height:125%;letter-spacing:0px;word-spacing:0px;fill:#808080;fill-opacity:1;stroke:none;font-family:Ubuntu;-inkscape-font-specification:Ubuntu"
         xml:space="preserve"><tspan
           id="tspan3563"
           style="font-size:12px;text-align:center;text-anchor:middle;fill:#808080"
           y="669.77734"
           x="374.10538"
           sodipodi:role="line">Servidor SATHub</tspan></text>
      <g
         transform="matrix(0.7678618,0,0,0.7678618,289.51371,311.89872)"
         id="g3565"
         style="font-size:105.94283295px;font-style:normal;font-variant:normal;font-weight:normal;font-stretch:normal;line-height:125%;letter-spacing:0px;word-spacing:0px;fill:#4d4d4d;fill-opacity:1;stroke:none;font-family:Ubuntu;-inkscape-font-specification:Ubuntu">
        <path
           inkscape:connector-curvature="0"
           id="path3567"
           d="m 325.76025,327.47456 0,-49.18775 c -1.1e-4,-0.51229 -0.19718,-0.94583 -0.5912,-1.30064 -0.35483,-0.39405 -0.78837,-0.59111 -1.30064,-0.59119 l -94.59182,0 c -0.51238,8e-5 -0.96563,0.19714 -1.35975,0.59119 -0.35473,0.35481 -0.53209,0.78835 -0.53208,1.30064 l 0,49.18775 c -1e-5,0.5124 0.17735,0.96565 0.53208,1.35975 0.39412,0.35475 0.84737,0.53211 1.35975,0.53208 l 94.59182,0 c 0.51227,3e-5 0.94581,-0.17733 1.30064,-0.53208 0.39402,-0.3941 0.59109,-0.84735 0.5912,-1.35975 m 7.56734,-49.18775 0,64.32244 c -1.1e-4,2.60129 -0.92632,4.82813 -2.77863,6.68054 -1.85254,1.85243 -4.07938,2.77865 -6.68055,2.77864 l -32.16122,0 c -7e-5,1.45829 0.31524,2.99541 0.94592,4.61135 0.63054,1.57653 1.26115,2.95599 1.89184,4.13839 0.63053,1.22181 0.94584,2.0889 0.94592,2.60128 -8e-5,1.02474 -0.37451,1.91153 -1.12328,2.66039 -0.74893,0.74884 -1.63573,1.12327 -2.6604,1.12328 l -30.26938,0 c -1.02478,-1e-5 -1.91158,-0.37444 -2.66039,-1.12328 -0.74889,-0.74886 -1.12332,-1.63565 -1.12328,-2.66039 -4e-5,-0.55179 0.31527,-1.41888 0.94592,-2.60128 0.63057,-1.1824 1.26118,-2.56186 1.89183,-4.13839 0.63057,-1.57653 0.94588,-3.11364 0.94592,-4.61135 l -32.16122,0 c -2.60128,1e-5 -4.82812,-0.92621 -6.68054,-2.77864 -1.85243,-1.85241 -2.77864,-4.07925 -2.77864,-6.68054 l 0,-64.32244 c 0,-2.60119 0.92621,-4.82804 2.77864,-6.68055 1.85242,-1.85233 4.07926,-2.77854 6.68054,-2.77863 l 94.59182,0 c 2.60117,9e-5 4.82801,0.9263 6.68055,2.77863 1.85231,1.85251 2.77852,4.07936 2.77863,6.68055"
           style="fill:#4d4d4d" />
      </g>
      <g
         id="g3569"
         transform="translate(0,0.60639662)">
        <rect
           y="602.07208"
           x="426.70325"
           height="3"
           width="77.005981"
           id="rect3571"
           style="fill:#808080;stroke:none" />
        <rect
           transform="matrix(0,1,-1,0,0,0)"
           style="fill:#808080;stroke:none"
           id="rect3573"
           width="9.9991522"
           height="3"
           x="595.07294"
           y="-503.70923" />
      </g>
      <g
         transform="matrix(1,0,0,-1,0,1221.3578)"
         id="g3575">
        <rect
           style="fill:#808080;stroke:none"
           id="rect3577"
           width="77.005981"
           height="3"
           x="426.70325"
           y="602.07208" />
        <rect
           y="-503.70923"
           x="595.07294"
           height="3"
           width="9.9991522"
           id="rect3579"
           style="fill:#808080;stroke:none"
           transform="matrix(0,1,-1,0,0,0)" />
      </g>
    </g>
  </g>
</svg>
